<mxfile host="app.diagrams.net" agent="Mozilla/5.0 (X11; Linux x86_64; rv:143.0) Gecko/20100101 Firefox/143.0" version="28.2.5">
  <diagram name="Page-1" id="ClMCTftlaDumYHm0V1Hk">
    <mxGraphModel dx="1232" dy="1378" grid="1" gridSize="10" guides="1" tooltips="1" connect="1" arrows="1" fold="1" page="1" pageScale="1" pageWidth="850" pageHeight="1100" math="0" shadow="0">
      <root>
        <mxCell id="0" />
        <mxCell id="1" parent="0" />
        <mxCell id="VunGk0xit2YbRF6asFoe-3" value="" style="edgeStyle=none;curved=1;rounded=0;orthogonalLoop=1;jettySize=auto;html=1;fontSize=12;startSize=8;endSize=8;" edge="1" parent="1" source="VunGk0xit2YbRF6asFoe-1" target="VunGk0xit2YbRF6asFoe-2">
          <mxGeometry relative="1" as="geometry" />
        </mxCell>
        <mxCell id="VunGk0xit2YbRF6asFoe-1" value="Start" style="strokeWidth=2;html=1;shape=mxgraph.flowchart.start_2;whiteSpace=wrap;" vertex="1" parent="1">
          <mxGeometry x="70" y="90" width="100" height="100" as="geometry" />
        </mxCell>
        <mxCell id="VunGk0xit2YbRF6asFoe-6" value="" style="edgeStyle=none;curved=1;rounded=0;orthogonalLoop=1;jettySize=auto;html=1;fontSize=12;startSize=8;endSize=8;" edge="1" parent="1" source="VunGk0xit2YbRF6asFoe-2" target="VunGk0xit2YbRF6asFoe-5">
          <mxGeometry relative="1" as="geometry" />
        </mxCell>
        <mxCell id="VunGk0xit2YbRF6asFoe-2" value="&lt;div&gt;Makefile&lt;/div&gt;&lt;div&gt;Compile &#39;server&#39; &amp;amp; &#39;client&#39;&lt;/div&gt;" style="whiteSpace=wrap;html=1;strokeWidth=2;" vertex="1" parent="1">
          <mxGeometry x="280" y="110" width="120" height="60" as="geometry" />
        </mxCell>
        <mxCell id="VunGk0xit2YbRF6asFoe-8" value="" style="edgeStyle=none;curved=1;rounded=0;orthogonalLoop=1;jettySize=auto;html=1;fontSize=12;startSize=8;endSize=8;" edge="1" parent="1" source="VunGk0xit2YbRF6asFoe-5" target="VunGk0xit2YbRF6asFoe-7">
          <mxGeometry relative="1" as="geometry" />
        </mxCell>
        <mxCell id="VunGk0xit2YbRF6asFoe-5" value="Run &#39;server&#39;" style="whiteSpace=wrap;html=1;strokeWidth=2;" vertex="1" parent="1">
          <mxGeometry x="520" y="110" width="120" height="60" as="geometry" />
        </mxCell>
        <mxCell id="VunGk0xit2YbRF6asFoe-10" value="" style="edgeStyle=none;curved=1;rounded=0;orthogonalLoop=1;jettySize=auto;html=1;fontSize=12;startSize=8;endSize=8;entryX=1;entryY=0.5;entryDx=0;entryDy=0;" edge="1" parent="1" source="VunGk0xit2YbRF6asFoe-7" target="VunGk0xit2YbRF6asFoe-11">
          <mxGeometry relative="1" as="geometry">
            <mxPoint x="400.0000000000002" y="320" as="targetPoint" />
          </mxGeometry>
        </mxCell>
        <mxCell id="VunGk0xit2YbRF6asFoe-7" value="Run &#39;client&#39; with server&#39;s PID" style="whiteSpace=wrap;html=1;strokeWidth=2;" vertex="1" parent="1">
          <mxGeometry x="520" y="290" width="120" height="60" as="geometry" />
        </mxCell>
        <mxCell id="VunGk0xit2YbRF6asFoe-13" value="" style="edgeStyle=none;curved=1;rounded=0;orthogonalLoop=1;jettySize=auto;html=1;fontSize=12;startSize=8;endSize=8;" edge="1" parent="1" source="VunGk0xit2YbRF6asFoe-11" target="VunGk0xit2YbRF6asFoe-12">
          <mxGeometry relative="1" as="geometry" />
        </mxCell>
        <mxCell id="VunGk0xit2YbRF6asFoe-11" value="&lt;div&gt;&lt;br&gt;&lt;/div&gt;&lt;div&gt;Write message&lt;/div&gt;" style="html=1;strokeWidth=2;shape=manualInput;whiteSpace=wrap;rounded=1;size=26;arcSize=11;" vertex="1" parent="1">
          <mxGeometry x="290" y="290" width="100" height="60" as="geometry" />
        </mxCell>
        <mxCell id="VunGk0xit2YbRF6asFoe-20" style="edgeStyle=none;curved=1;rounded=0;orthogonalLoop=1;jettySize=auto;html=1;exitX=0.5;exitY=1;exitDx=0;exitDy=0;entryX=0.5;entryY=0;entryDx=0;entryDy=0;fontSize=12;startSize=8;endSize=8;" edge="1" parent="1" source="VunGk0xit2YbRF6asFoe-12" target="VunGk0xit2YbRF6asFoe-14">
          <mxGeometry relative="1" as="geometry" />
        </mxCell>
        <mxCell id="VunGk0xit2YbRF6asFoe-12" value="&#39;Client&#39; codes the message to binary and sends it" style="whiteSpace=wrap;html=1;strokeWidth=2;rounded=1;arcSize=11;" vertex="1" parent="1">
          <mxGeometry x="60" y="290" width="120" height="60" as="geometry" />
        </mxCell>
        <mxCell id="VunGk0xit2YbRF6asFoe-19" value="" style="edgeStyle=none;curved=1;rounded=0;orthogonalLoop=1;jettySize=auto;html=1;fontSize=12;startSize=8;endSize=8;" edge="1" parent="1" source="VunGk0xit2YbRF6asFoe-14" target="VunGk0xit2YbRF6asFoe-18">
          <mxGeometry relative="1" as="geometry" />
        </mxCell>
        <mxCell id="VunGk0xit2YbRF6asFoe-14" value="&#39;Server&#39; receives message, decodes and prints as ASCII" style="whiteSpace=wrap;html=1;strokeWidth=2;rounded=1;arcSize=11;" vertex="1" parent="1">
          <mxGeometry x="60" y="470" width="120" height="60" as="geometry" />
        </mxCell>
        <mxCell id="VunGk0xit2YbRF6asFoe-27" value="" style="edgeStyle=none;curved=1;rounded=0;orthogonalLoop=1;jettySize=auto;html=1;fontSize=12;startSize=8;endSize=8;" edge="1" parent="1" source="VunGk0xit2YbRF6asFoe-16" target="VunGk0xit2YbRF6asFoe-26">
          <mxGeometry relative="1" as="geometry" />
        </mxCell>
        <mxCell id="VunGk0xit2YbRF6asFoe-35" value="" style="edgeStyle=none;curved=1;rounded=0;orthogonalLoop=1;jettySize=auto;html=1;fontSize=12;startSize=8;endSize=8;" edge="1" parent="1" source="VunGk0xit2YbRF6asFoe-16" target="VunGk0xit2YbRF6asFoe-34">
          <mxGeometry relative="1" as="geometry" />
        </mxCell>
        <mxCell id="VunGk0xit2YbRF6asFoe-16" value="&#39;Server&#39; sends a received signal&amp;nbsp;" style="whiteSpace=wrap;html=1;strokeWidth=2;rounded=1;arcSize=11;" vertex="1" parent="1">
          <mxGeometry x="520" y="470" width="120" height="60" as="geometry" />
        </mxCell>
        <mxCell id="VunGk0xit2YbRF6asFoe-21" style="edgeStyle=none;curved=1;rounded=0;orthogonalLoop=1;jettySize=auto;html=1;exitX=1;exitY=0.5;exitDx=0;exitDy=0;entryX=0;entryY=0.5;entryDx=0;entryDy=0;fontSize=12;startSize=8;endSize=8;" edge="1" parent="1" source="VunGk0xit2YbRF6asFoe-18" target="VunGk0xit2YbRF6asFoe-16">
          <mxGeometry relative="1" as="geometry" />
        </mxCell>
        <mxCell id="VunGk0xit2YbRF6asFoe-22" value="YES" style="edgeLabel;html=1;align=center;verticalAlign=middle;resizable=0;points=[];fontSize=12;" vertex="1" connectable="0" parent="VunGk0xit2YbRF6asFoe-21">
          <mxGeometry x="-0.1696" y="2" relative="1" as="geometry">
            <mxPoint as="offset" />
          </mxGeometry>
        </mxCell>
        <mxCell id="VunGk0xit2YbRF6asFoe-24" value="" style="edgeStyle=none;curved=1;rounded=0;orthogonalLoop=1;jettySize=auto;html=1;fontSize=12;startSize=8;endSize=8;" edge="1" parent="1" source="VunGk0xit2YbRF6asFoe-18" target="VunGk0xit2YbRF6asFoe-23">
          <mxGeometry relative="1" as="geometry" />
        </mxCell>
        <mxCell id="VunGk0xit2YbRF6asFoe-25" value="&lt;div&gt;NO&lt;/div&gt;" style="edgeLabel;html=1;align=center;verticalAlign=middle;resizable=0;points=[];fontSize=12;" vertex="1" connectable="0" parent="VunGk0xit2YbRF6asFoe-24">
          <mxGeometry x="-0.2769" y="2" relative="1" as="geometry">
            <mxPoint as="offset" />
          </mxGeometry>
        </mxCell>
        <mxCell id="VunGk0xit2YbRF6asFoe-18" value="Sucess?" style="rhombus;whiteSpace=wrap;html=1;strokeWidth=2;rounded=1;arcSize=11;" vertex="1" parent="1">
          <mxGeometry x="320" y="460" width="80" height="80" as="geometry" />
        </mxCell>
        <mxCell id="VunGk0xit2YbRF6asFoe-29" value="" style="edgeStyle=none;curved=1;rounded=0;orthogonalLoop=1;jettySize=auto;html=1;fontSize=12;startSize=8;endSize=8;" edge="1" parent="1" source="VunGk0xit2YbRF6asFoe-23" target="VunGk0xit2YbRF6asFoe-28">
          <mxGeometry relative="1" as="geometry" />
        </mxCell>
        <mxCell id="VunGk0xit2YbRF6asFoe-37" style="edgeStyle=none;curved=1;rounded=0;orthogonalLoop=1;jettySize=auto;html=1;exitX=0;exitY=0.5;exitDx=0;exitDy=0;entryX=1;entryY=0.5;entryDx=0;entryDy=0;fontSize=12;startSize=8;endSize=8;" edge="1" parent="1" source="VunGk0xit2YbRF6asFoe-23" target="VunGk0xit2YbRF6asFoe-36">
          <mxGeometry relative="1" as="geometry" />
        </mxCell>
        <mxCell id="VunGk0xit2YbRF6asFoe-23" value="&#39;Server&#39; sends a fail signal to client" style="whiteSpace=wrap;html=1;strokeWidth=2;rounded=1;arcSize=11;" vertex="1" parent="1">
          <mxGeometry x="300" y="670" width="120" height="60" as="geometry" />
        </mxCell>
        <mxCell id="VunGk0xit2YbRF6asFoe-26" value="End" style="ellipse;whiteSpace=wrap;html=1;strokeWidth=2;rounded=1;arcSize=11;" vertex="1" parent="1">
          <mxGeometry x="540" y="640" width="80" height="80" as="geometry" />
        </mxCell>
        <mxCell id="VunGk0xit2YbRF6asFoe-28" value="End" style="ellipse;whiteSpace=wrap;html=1;strokeWidth=2;rounded=1;arcSize=11;" vertex="1" parent="1">
          <mxGeometry x="320" y="840" width="80" height="80" as="geometry" />
        </mxCell>
        <mxCell id="VunGk0xit2YbRF6asFoe-34" value="&lt;div&gt;Go to &#39;write message&lt;/div&gt;" style="ellipse;whiteSpace=wrap;html=1;strokeWidth=2;rounded=1;arcSize=11;" vertex="1" parent="1">
          <mxGeometry x="710" y="460" width="80" height="80" as="geometry" />
        </mxCell>
        <mxCell id="VunGk0xit2YbRF6asFoe-36" value="&lt;div&gt;Go to &#39;write message&lt;/div&gt;" style="ellipse;whiteSpace=wrap;html=1;strokeWidth=2;rounded=1;arcSize=11;" vertex="1" parent="1">
          <mxGeometry x="140" y="660" width="80" height="80" as="geometry" />
        </mxCell>
      </root>
    </mxGraphModel>
  </diagram>
</mxfile>
